<mxfile host="Electron" agent="Mozilla/5.0 (Macintosh; Intel Mac OS X 10_15_7) AppleWebKit/537.36 (KHTML, like Gecko) draw.io/28.1.2 Chrome/138.0.7204.243 Electron/37.4.0 Safari/537.36" version="28.1.2">
  <diagram name="Page-1" id="lxQO5mvAMIBR5xfSW_38">
    <mxGraphModel dx="2004" dy="374" grid="1" gridSize="10" guides="1" tooltips="1" connect="1" arrows="1" fold="1" page="1" pageScale="1" pageWidth="850" pageHeight="1100" math="0" shadow="0">
      <root>
        <mxCell id="0" />
        <mxCell id="1" parent="0" />
        <mxCell id="FCroNnizWU_92-UYADma-193" value="" style="edgeStyle=orthogonalEdgeStyle;rounded=0;orthogonalLoop=1;jettySize=auto;html=1;" edge="1" parent="1" source="FCroNnizWU_92-UYADma-169">
          <mxGeometry relative="1" as="geometry">
            <mxPoint x="587.5" y="770" as="targetPoint" />
          </mxGeometry>
        </mxCell>
        <mxCell id="FCroNnizWU_92-UYADma-372" value="" style="shape=table;startSize=0;container=1;collapsible=0;childLayout=tableLayout;fontSize=18;fontStyle=1" vertex="1" parent="1">
          <mxGeometry x="190" y="1540" width="1730" height="1290.0000000000002" as="geometry" />
        </mxCell>
        <mxCell id="FCroNnizWU_92-UYADma-373" style="shape=tableRow;horizontal=0;startSize=0;swimlaneHead=0;swimlaneBody=0;strokeColor=inherit;top=0;left=0;bottom=0;right=0;collapsible=0;dropTarget=0;fillColor=none;points=[[0,0.5],[1,0.5]];portConstraint=eastwest;fontSize=16;" vertex="1" parent="FCroNnizWU_92-UYADma-372">
          <mxGeometry width="1730" height="110" as="geometry" />
        </mxCell>
        <mxCell id="FCroNnizWU_92-UYADma-374" value="Карта IT-ландшафта (AS IS)" style="shape=partialRectangle;html=1;whiteSpace=wrap;connectable=0;strokeColor=#23445d;overflow=hidden;fillColor=#bac8d3;top=0;left=0;bottom=0;right=0;pointerEvents=1;fontSize=16;fontStyle=1" vertex="1" parent="FCroNnizWU_92-UYADma-373">
          <mxGeometry width="180" height="110" as="geometry">
            <mxRectangle width="180" height="110" as="alternateBounds" />
          </mxGeometry>
        </mxCell>
        <mxCell id="FCroNnizWU_92-UYADma-375" value="Продажа в сети отделений" style="shape=partialRectangle;html=1;whiteSpace=wrap;connectable=0;strokeColor=#36393d;overflow=hidden;fillColor=#eeeeee;top=0;left=0;bottom=0;right=0;pointerEvents=1;fontSize=16;" vertex="1" parent="FCroNnizWU_92-UYADma-373">
          <mxGeometry x="180" width="310" height="110" as="geometry">
            <mxRectangle width="310" height="110" as="alternateBounds" />
          </mxGeometry>
        </mxCell>
        <mxCell id="FCroNnizWU_92-UYADma-376" value="Обслуживание депозитных процессов" style="shape=partialRectangle;html=1;whiteSpace=wrap;connectable=0;strokeColor=#36393d;overflow=hidden;fillColor=#eeeeee;top=0;left=0;bottom=0;right=0;pointerEvents=1;fontSize=16;" vertex="1" parent="FCroNnizWU_92-UYADma-373">
          <mxGeometry x="490" width="250" height="110" as="geometry">
            <mxRectangle width="250" height="110" as="alternateBounds" />
          </mxGeometry>
        </mxCell>
        <mxCell id="FCroNnizWU_92-UYADma-377" value="Обслуживание кредитных процессов" style="shape=partialRectangle;html=1;whiteSpace=wrap;connectable=0;strokeColor=#36393d;overflow=hidden;fillColor=#eeeeee;top=0;left=0;bottom=0;right=0;pointerEvents=1;fontSize=16;" vertex="1" parent="FCroNnizWU_92-UYADma-373">
          <mxGeometry x="740" width="270" height="110" as="geometry">
            <mxRectangle width="270" height="110" as="alternateBounds" />
          </mxGeometry>
        </mxCell>
        <mxCell id="FCroNnizWU_92-UYADma-378" value="Digital оповещение клиентов" style="shape=partialRectangle;html=1;whiteSpace=wrap;connectable=0;strokeColor=#36393d;overflow=hidden;fillColor=#eeeeee;top=0;left=0;bottom=0;right=0;pointerEvents=1;fontSize=16;" vertex="1" parent="FCroNnizWU_92-UYADma-373">
          <mxGeometry x="1010" width="290" height="110" as="geometry">
            <mxRectangle width="290" height="110" as="alternateBounds" />
          </mxGeometry>
        </mxCell>
        <mxCell id="FCroNnizWU_92-UYADma-379" value="Продажа через call-центр" style="shape=partialRectangle;html=1;whiteSpace=wrap;connectable=0;strokeColor=#36393d;overflow=hidden;fillColor=#eeeeee;top=0;left=0;bottom=0;right=0;pointerEvents=1;fontSize=16;" vertex="1" parent="FCroNnizWU_92-UYADma-373">
          <mxGeometry x="1300" width="260" height="110" as="geometry">
            <mxRectangle width="260" height="110" as="alternateBounds" />
          </mxGeometry>
        </mxCell>
        <mxCell id="FCroNnizWU_92-UYADma-380" value="Управление договорами" style="shape=partialRectangle;html=1;whiteSpace=wrap;connectable=0;strokeColor=#36393d;overflow=hidden;fillColor=#eeeeee;top=0;left=0;bottom=0;right=0;pointerEvents=1;fontSize=16;" vertex="1" parent="FCroNnizWU_92-UYADma-373">
          <mxGeometry x="1560" width="170" height="110" as="geometry">
            <mxRectangle width="170" height="110" as="alternateBounds" />
          </mxGeometry>
        </mxCell>
        <mxCell id="FCroNnizWU_92-UYADma-381" style="shape=tableRow;horizontal=0;startSize=0;swimlaneHead=0;swimlaneBody=0;strokeColor=inherit;top=0;left=0;bottom=0;right=0;collapsible=0;dropTarget=0;fillColor=none;points=[[0,0.5],[1,0.5]];portConstraint=eastwest;fontSize=16;" vertex="1" parent="FCroNnizWU_92-UYADma-372">
          <mxGeometry y="110" width="1730" height="220" as="geometry" />
        </mxCell>
        <mxCell id="FCroNnizWU_92-UYADma-382" value="Call-центр" style="shape=partialRectangle;html=1;whiteSpace=wrap;connectable=0;strokeColor=#36393d;overflow=hidden;fillColor=#eeeeee;top=0;left=0;bottom=0;right=0;pointerEvents=1;fontSize=16;" vertex="1" parent="FCroNnizWU_92-UYADma-381">
          <mxGeometry width="180" height="220" as="geometry">
            <mxRectangle width="180" height="220" as="alternateBounds" />
          </mxGeometry>
        </mxCell>
        <mxCell id="FCroNnizWU_92-UYADma-383" style="shape=partialRectangle;html=1;whiteSpace=wrap;connectable=0;strokeColor=inherit;overflow=hidden;fillColor=none;top=0;left=0;bottom=0;right=0;pointerEvents=1;fontSize=16;" vertex="1" parent="FCroNnizWU_92-UYADma-381">
          <mxGeometry x="180" width="310" height="220" as="geometry">
            <mxRectangle width="310" height="220" as="alternateBounds" />
          </mxGeometry>
        </mxCell>
        <mxCell id="FCroNnizWU_92-UYADma-384" style="shape=partialRectangle;html=1;whiteSpace=wrap;connectable=0;strokeColor=inherit;overflow=hidden;fillColor=none;top=0;left=0;bottom=0;right=0;pointerEvents=1;fontSize=16;" vertex="1" parent="FCroNnizWU_92-UYADma-381">
          <mxGeometry x="490" width="250" height="220" as="geometry">
            <mxRectangle width="250" height="220" as="alternateBounds" />
          </mxGeometry>
        </mxCell>
        <mxCell id="FCroNnizWU_92-UYADma-385" style="shape=partialRectangle;html=1;whiteSpace=wrap;connectable=0;strokeColor=inherit;overflow=hidden;fillColor=none;top=0;left=0;bottom=0;right=0;pointerEvents=1;fontSize=16;" vertex="1" parent="FCroNnizWU_92-UYADma-381">
          <mxGeometry x="740" width="270" height="220" as="geometry">
            <mxRectangle width="270" height="220" as="alternateBounds" />
          </mxGeometry>
        </mxCell>
        <mxCell id="FCroNnizWU_92-UYADma-386" style="shape=partialRectangle;html=1;whiteSpace=wrap;connectable=0;strokeColor=inherit;overflow=hidden;fillColor=none;top=0;left=0;bottom=0;right=0;pointerEvents=1;fontSize=16;" vertex="1" parent="FCroNnizWU_92-UYADma-381">
          <mxGeometry x="1010" width="290" height="220" as="geometry">
            <mxRectangle width="290" height="220" as="alternateBounds" />
          </mxGeometry>
        </mxCell>
        <mxCell id="FCroNnizWU_92-UYADma-387" style="shape=partialRectangle;html=1;whiteSpace=wrap;connectable=0;strokeColor=inherit;overflow=hidden;fillColor=none;top=0;left=0;bottom=0;right=0;pointerEvents=1;fontSize=16;" vertex="1" parent="FCroNnizWU_92-UYADma-381">
          <mxGeometry x="1300" width="260" height="220" as="geometry">
            <mxRectangle width="260" height="220" as="alternateBounds" />
          </mxGeometry>
        </mxCell>
        <mxCell id="FCroNnizWU_92-UYADma-388" style="shape=partialRectangle;html=1;whiteSpace=wrap;connectable=0;strokeColor=inherit;overflow=hidden;fillColor=none;top=0;left=0;bottom=0;right=0;pointerEvents=1;fontSize=16;" vertex="1" parent="FCroNnizWU_92-UYADma-381">
          <mxGeometry x="1560" width="170" height="220" as="geometry">
            <mxRectangle width="170" height="220" as="alternateBounds" />
          </mxGeometry>
        </mxCell>
        <mxCell id="FCroNnizWU_92-UYADma-389" value="" style="shape=tableRow;horizontal=0;startSize=0;swimlaneHead=0;swimlaneBody=0;strokeColor=inherit;top=0;left=0;bottom=0;right=0;collapsible=0;dropTarget=0;fillColor=none;points=[[0,0.5],[1,0.5]];portConstraint=eastwest;fontSize=16;" vertex="1" parent="FCroNnizWU_92-UYADma-372">
          <mxGeometry y="330" width="1730" height="200" as="geometry" />
        </mxCell>
        <mxCell id="FCroNnizWU_92-UYADma-390" value="Управление обслуживанием в сети отделений" style="shape=partialRectangle;html=1;whiteSpace=wrap;connectable=0;strokeColor=#36393d;overflow=hidden;fillColor=#eeeeee;top=0;left=0;bottom=0;right=0;pointerEvents=1;fontSize=16;" vertex="1" parent="FCroNnizWU_92-UYADma-389">
          <mxGeometry width="180" height="200" as="geometry">
            <mxRectangle width="180" height="200" as="alternateBounds" />
          </mxGeometry>
        </mxCell>
        <mxCell id="FCroNnizWU_92-UYADma-391" value="" style="shape=partialRectangle;html=1;whiteSpace=wrap;connectable=0;strokeColor=inherit;overflow=hidden;fillColor=none;top=0;left=0;bottom=0;right=0;pointerEvents=1;fontSize=16;" vertex="1" parent="FCroNnizWU_92-UYADma-389">
          <mxGeometry x="180" width="310" height="200" as="geometry">
            <mxRectangle width="310" height="200" as="alternateBounds" />
          </mxGeometry>
        </mxCell>
        <mxCell id="FCroNnizWU_92-UYADma-392" value="" style="shape=partialRectangle;html=1;whiteSpace=wrap;connectable=0;strokeColor=inherit;overflow=hidden;fillColor=none;top=0;left=0;bottom=0;right=0;pointerEvents=1;fontSize=16;" vertex="1" parent="FCroNnizWU_92-UYADma-389">
          <mxGeometry x="490" width="250" height="200" as="geometry">
            <mxRectangle width="250" height="200" as="alternateBounds" />
          </mxGeometry>
        </mxCell>
        <mxCell id="FCroNnizWU_92-UYADma-393" style="shape=partialRectangle;html=1;whiteSpace=wrap;connectable=0;strokeColor=inherit;overflow=hidden;fillColor=none;top=0;left=0;bottom=0;right=0;pointerEvents=1;fontSize=16;" vertex="1" parent="FCroNnizWU_92-UYADma-389">
          <mxGeometry x="740" width="270" height="200" as="geometry">
            <mxRectangle width="270" height="200" as="alternateBounds" />
          </mxGeometry>
        </mxCell>
        <mxCell id="FCroNnizWU_92-UYADma-394" style="shape=partialRectangle;html=1;whiteSpace=wrap;connectable=0;strokeColor=inherit;overflow=hidden;fillColor=none;top=0;left=0;bottom=0;right=0;pointerEvents=1;fontSize=16;" vertex="1" parent="FCroNnizWU_92-UYADma-389">
          <mxGeometry x="1010" width="290" height="200" as="geometry">
            <mxRectangle width="290" height="200" as="alternateBounds" />
          </mxGeometry>
        </mxCell>
        <mxCell id="FCroNnizWU_92-UYADma-395" style="shape=partialRectangle;html=1;whiteSpace=wrap;connectable=0;strokeColor=inherit;overflow=hidden;fillColor=none;top=0;left=0;bottom=0;right=0;pointerEvents=1;fontSize=16;" vertex="1" parent="FCroNnizWU_92-UYADma-389">
          <mxGeometry x="1300" width="260" height="200" as="geometry">
            <mxRectangle width="260" height="200" as="alternateBounds" />
          </mxGeometry>
        </mxCell>
        <mxCell id="FCroNnizWU_92-UYADma-396" style="shape=partialRectangle;html=1;whiteSpace=wrap;connectable=0;strokeColor=inherit;overflow=hidden;fillColor=none;top=0;left=0;bottom=0;right=0;pointerEvents=1;fontSize=16;" vertex="1" parent="FCroNnizWU_92-UYADma-389">
          <mxGeometry x="1560" width="170" height="200" as="geometry">
            <mxRectangle width="170" height="200" as="alternateBounds" />
          </mxGeometry>
        </mxCell>
        <mxCell id="FCroNnizWU_92-UYADma-397" value="" style="shape=tableRow;horizontal=0;startSize=0;swimlaneHead=0;swimlaneBody=0;strokeColor=inherit;top=0;left=0;bottom=0;right=0;collapsible=0;dropTarget=0;fillColor=none;points=[[0,0.5],[1,0.5]];portConstraint=eastwest;fontSize=16;" vertex="1" parent="FCroNnizWU_92-UYADma-372">
          <mxGeometry y="530" width="1730" height="190" as="geometry" />
        </mxCell>
        <mxCell id="FCroNnizWU_92-UYADma-398" value="Управление&amp;nbsp; обслуживанием&lt;div&gt;&amp;nbsp;депозитных продуктов&lt;/div&gt;" style="shape=partialRectangle;html=1;whiteSpace=wrap;connectable=0;strokeColor=#36393d;overflow=hidden;fillColor=#eeeeee;top=0;left=0;bottom=0;right=0;pointerEvents=1;fontSize=16;" vertex="1" parent="FCroNnizWU_92-UYADma-397">
          <mxGeometry width="180" height="190" as="geometry">
            <mxRectangle width="180" height="190" as="alternateBounds" />
          </mxGeometry>
        </mxCell>
        <mxCell id="FCroNnizWU_92-UYADma-399" value="" style="shape=partialRectangle;html=1;whiteSpace=wrap;connectable=0;strokeColor=inherit;overflow=hidden;fillColor=none;top=0;left=0;bottom=0;right=0;pointerEvents=1;fontSize=16;" vertex="1" parent="FCroNnizWU_92-UYADma-397">
          <mxGeometry x="180" width="310" height="190" as="geometry">
            <mxRectangle width="310" height="190" as="alternateBounds" />
          </mxGeometry>
        </mxCell>
        <mxCell id="FCroNnizWU_92-UYADma-400" value="" style="shape=partialRectangle;html=1;whiteSpace=wrap;connectable=0;strokeColor=inherit;overflow=hidden;fillColor=none;top=0;left=0;bottom=0;right=0;pointerEvents=1;fontSize=16;" vertex="1" parent="FCroNnizWU_92-UYADma-397">
          <mxGeometry x="490" width="250" height="190" as="geometry">
            <mxRectangle width="250" height="190" as="alternateBounds" />
          </mxGeometry>
        </mxCell>
        <mxCell id="FCroNnizWU_92-UYADma-401" style="shape=partialRectangle;html=1;whiteSpace=wrap;connectable=0;strokeColor=inherit;overflow=hidden;fillColor=none;top=0;left=0;bottom=0;right=0;pointerEvents=1;fontSize=16;" vertex="1" parent="FCroNnizWU_92-UYADma-397">
          <mxGeometry x="740" width="270" height="190" as="geometry">
            <mxRectangle width="270" height="190" as="alternateBounds" />
          </mxGeometry>
        </mxCell>
        <mxCell id="FCroNnizWU_92-UYADma-402" style="shape=partialRectangle;html=1;whiteSpace=wrap;connectable=0;strokeColor=inherit;overflow=hidden;fillColor=none;top=0;left=0;bottom=0;right=0;pointerEvents=1;fontSize=16;" vertex="1" parent="FCroNnizWU_92-UYADma-397">
          <mxGeometry x="1010" width="290" height="190" as="geometry">
            <mxRectangle width="290" height="190" as="alternateBounds" />
          </mxGeometry>
        </mxCell>
        <mxCell id="FCroNnizWU_92-UYADma-403" style="shape=partialRectangle;html=1;whiteSpace=wrap;connectable=0;strokeColor=inherit;overflow=hidden;fillColor=none;top=0;left=0;bottom=0;right=0;pointerEvents=1;fontSize=16;" vertex="1" parent="FCroNnizWU_92-UYADma-397">
          <mxGeometry x="1300" width="260" height="190" as="geometry">
            <mxRectangle width="260" height="190" as="alternateBounds" />
          </mxGeometry>
        </mxCell>
        <mxCell id="FCroNnizWU_92-UYADma-404" style="shape=partialRectangle;html=1;whiteSpace=wrap;connectable=0;strokeColor=inherit;overflow=hidden;fillColor=none;top=0;left=0;bottom=0;right=0;pointerEvents=1;fontSize=16;" vertex="1" parent="FCroNnizWU_92-UYADma-397">
          <mxGeometry x="1560" width="170" height="190" as="geometry">
            <mxRectangle width="170" height="190" as="alternateBounds" />
          </mxGeometry>
        </mxCell>
        <mxCell id="FCroNnizWU_92-UYADma-405" style="shape=tableRow;horizontal=0;startSize=0;swimlaneHead=0;swimlaneBody=0;strokeColor=inherit;top=0;left=0;bottom=0;right=0;collapsible=0;dropTarget=0;fillColor=none;points=[[0,0.5],[1,0.5]];portConstraint=eastwest;fontSize=16;" vertex="1" parent="FCroNnizWU_92-UYADma-372">
          <mxGeometry y="720" width="1730" height="180" as="geometry" />
        </mxCell>
        <mxCell id="FCroNnizWU_92-UYADma-406" value="Управление&amp;nbsp; обслуживанием&lt;div&gt;&amp;nbsp;кредитных продуктов&lt;/div&gt;" style="shape=partialRectangle;html=1;whiteSpace=wrap;connectable=0;strokeColor=#36393d;overflow=hidden;fillColor=#eeeeee;top=0;left=0;bottom=0;right=0;pointerEvents=1;fontSize=16;" vertex="1" parent="FCroNnizWU_92-UYADma-405">
          <mxGeometry width="180" height="180" as="geometry">
            <mxRectangle width="180" height="180" as="alternateBounds" />
          </mxGeometry>
        </mxCell>
        <mxCell id="FCroNnizWU_92-UYADma-407" style="shape=partialRectangle;html=1;whiteSpace=wrap;connectable=0;strokeColor=inherit;overflow=hidden;fillColor=none;top=0;left=0;bottom=0;right=0;pointerEvents=1;fontSize=16;" vertex="1" parent="FCroNnizWU_92-UYADma-405">
          <mxGeometry x="180" width="310" height="180" as="geometry">
            <mxRectangle width="310" height="180" as="alternateBounds" />
          </mxGeometry>
        </mxCell>
        <mxCell id="FCroNnizWU_92-UYADma-408" style="shape=partialRectangle;html=1;whiteSpace=wrap;connectable=0;strokeColor=inherit;overflow=hidden;fillColor=none;top=0;left=0;bottom=0;right=0;pointerEvents=1;fontSize=16;" vertex="1" parent="FCroNnizWU_92-UYADma-405">
          <mxGeometry x="490" width="250" height="180" as="geometry">
            <mxRectangle width="250" height="180" as="alternateBounds" />
          </mxGeometry>
        </mxCell>
        <mxCell id="FCroNnizWU_92-UYADma-409" style="shape=partialRectangle;html=1;whiteSpace=wrap;connectable=0;strokeColor=inherit;overflow=hidden;fillColor=none;top=0;left=0;bottom=0;right=0;pointerEvents=1;fontSize=16;" vertex="1" parent="FCroNnizWU_92-UYADma-405">
          <mxGeometry x="740" width="270" height="180" as="geometry">
            <mxRectangle width="270" height="180" as="alternateBounds" />
          </mxGeometry>
        </mxCell>
        <mxCell id="FCroNnizWU_92-UYADma-410" style="shape=partialRectangle;html=1;whiteSpace=wrap;connectable=0;strokeColor=inherit;overflow=hidden;fillColor=none;top=0;left=0;bottom=0;right=0;pointerEvents=1;fontSize=16;" vertex="1" parent="FCroNnizWU_92-UYADma-405">
          <mxGeometry x="1010" width="290" height="180" as="geometry">
            <mxRectangle width="290" height="180" as="alternateBounds" />
          </mxGeometry>
        </mxCell>
        <mxCell id="FCroNnizWU_92-UYADma-411" style="shape=partialRectangle;html=1;whiteSpace=wrap;connectable=0;strokeColor=inherit;overflow=hidden;fillColor=none;top=0;left=0;bottom=0;right=0;pointerEvents=1;fontSize=16;" vertex="1" parent="FCroNnizWU_92-UYADma-405">
          <mxGeometry x="1300" width="260" height="180" as="geometry">
            <mxRectangle width="260" height="180" as="alternateBounds" />
          </mxGeometry>
        </mxCell>
        <mxCell id="FCroNnizWU_92-UYADma-412" style="shape=partialRectangle;html=1;whiteSpace=wrap;connectable=0;strokeColor=inherit;overflow=hidden;fillColor=none;top=0;left=0;bottom=0;right=0;pointerEvents=1;fontSize=16;" vertex="1" parent="FCroNnizWU_92-UYADma-405">
          <mxGeometry x="1560" width="170" height="180" as="geometry">
            <mxRectangle width="170" height="180" as="alternateBounds" />
          </mxGeometry>
        </mxCell>
        <mxCell id="FCroNnizWU_92-UYADma-413" style="shape=tableRow;horizontal=0;startSize=0;swimlaneHead=0;swimlaneBody=0;strokeColor=inherit;top=0;left=0;bottom=0;right=0;collapsible=0;dropTarget=0;fillColor=none;points=[[0,0.5],[1,0.5]];portConstraint=eastwest;fontSize=16;" vertex="1" parent="FCroNnizWU_92-UYADma-372">
          <mxGeometry y="900" width="1730" height="200" as="geometry" />
        </mxCell>
        <mxCell id="FCroNnizWU_92-UYADma-414" value="IT-отдел" style="shape=partialRectangle;html=1;whiteSpace=wrap;connectable=0;strokeColor=#36393d;overflow=hidden;fillColor=#eeeeee;top=0;left=0;bottom=0;right=0;pointerEvents=1;fontSize=16;" vertex="1" parent="FCroNnizWU_92-UYADma-413">
          <mxGeometry width="180" height="200" as="geometry">
            <mxRectangle width="180" height="200" as="alternateBounds" />
          </mxGeometry>
        </mxCell>
        <mxCell id="FCroNnizWU_92-UYADma-415" style="shape=partialRectangle;html=1;whiteSpace=wrap;connectable=0;strokeColor=inherit;overflow=hidden;fillColor=none;top=0;left=0;bottom=0;right=0;pointerEvents=1;fontSize=16;" vertex="1" parent="FCroNnizWU_92-UYADma-413">
          <mxGeometry x="180" width="310" height="200" as="geometry">
            <mxRectangle width="310" height="200" as="alternateBounds" />
          </mxGeometry>
        </mxCell>
        <mxCell id="FCroNnizWU_92-UYADma-416" style="shape=partialRectangle;html=1;whiteSpace=wrap;connectable=0;strokeColor=inherit;overflow=hidden;fillColor=none;top=0;left=0;bottom=0;right=0;pointerEvents=1;fontSize=16;" vertex="1" parent="FCroNnizWU_92-UYADma-413">
          <mxGeometry x="490" width="250" height="200" as="geometry">
            <mxRectangle width="250" height="200" as="alternateBounds" />
          </mxGeometry>
        </mxCell>
        <mxCell id="FCroNnizWU_92-UYADma-417" style="shape=partialRectangle;html=1;whiteSpace=wrap;connectable=0;strokeColor=inherit;overflow=hidden;fillColor=none;top=0;left=0;bottom=0;right=0;pointerEvents=1;fontSize=16;" vertex="1" parent="FCroNnizWU_92-UYADma-413">
          <mxGeometry x="740" width="270" height="200" as="geometry">
            <mxRectangle width="270" height="200" as="alternateBounds" />
          </mxGeometry>
        </mxCell>
        <mxCell id="FCroNnizWU_92-UYADma-418" style="shape=partialRectangle;html=1;whiteSpace=wrap;connectable=0;strokeColor=inherit;overflow=hidden;fillColor=none;top=0;left=0;bottom=0;right=0;pointerEvents=1;fontSize=16;" vertex="1" parent="FCroNnizWU_92-UYADma-413">
          <mxGeometry x="1010" width="290" height="200" as="geometry">
            <mxRectangle width="290" height="200" as="alternateBounds" />
          </mxGeometry>
        </mxCell>
        <mxCell id="FCroNnizWU_92-UYADma-419" style="shape=partialRectangle;html=1;whiteSpace=wrap;connectable=0;strokeColor=inherit;overflow=hidden;fillColor=none;top=0;left=0;bottom=0;right=0;pointerEvents=1;fontSize=16;" vertex="1" parent="FCroNnizWU_92-UYADma-413">
          <mxGeometry x="1300" width="260" height="200" as="geometry">
            <mxRectangle width="260" height="200" as="alternateBounds" />
          </mxGeometry>
        </mxCell>
        <mxCell id="FCroNnizWU_92-UYADma-420" style="shape=partialRectangle;html=1;whiteSpace=wrap;connectable=0;strokeColor=inherit;overflow=hidden;fillColor=none;top=0;left=0;bottom=0;right=0;pointerEvents=1;fontSize=16;" vertex="1" parent="FCroNnizWU_92-UYADma-413">
          <mxGeometry x="1560" width="170" height="200" as="geometry">
            <mxRectangle width="170" height="200" as="alternateBounds" />
          </mxGeometry>
        </mxCell>
        <mxCell id="FCroNnizWU_92-UYADma-421" style="shape=tableRow;horizontal=0;startSize=0;swimlaneHead=0;swimlaneBody=0;strokeColor=inherit;top=0;left=0;bottom=0;right=0;collapsible=0;dropTarget=0;fillColor=none;points=[[0,0.5],[1,0.5]];portConstraint=eastwest;fontSize=16;" vertex="1" parent="FCroNnizWU_92-UYADma-372">
          <mxGeometry y="1100" width="1730" height="190" as="geometry" />
        </mxCell>
        <mxCell id="FCroNnizWU_92-UYADma-422" value="Команда цифровой трансформации" style="shape=partialRectangle;html=1;whiteSpace=wrap;connectable=0;strokeColor=#36393d;overflow=hidden;fillColor=#eeeeee;top=0;left=0;bottom=0;right=0;pointerEvents=1;fontSize=16;" vertex="1" parent="FCroNnizWU_92-UYADma-421">
          <mxGeometry width="180" height="190" as="geometry">
            <mxRectangle width="180" height="190" as="alternateBounds" />
          </mxGeometry>
        </mxCell>
        <mxCell id="FCroNnizWU_92-UYADma-423" style="shape=partialRectangle;html=1;whiteSpace=wrap;connectable=0;strokeColor=inherit;overflow=hidden;fillColor=none;top=0;left=0;bottom=0;right=0;pointerEvents=1;fontSize=16;" vertex="1" parent="FCroNnizWU_92-UYADma-421">
          <mxGeometry x="180" width="310" height="190" as="geometry">
            <mxRectangle width="310" height="190" as="alternateBounds" />
          </mxGeometry>
        </mxCell>
        <mxCell id="FCroNnizWU_92-UYADma-424" style="shape=partialRectangle;html=1;whiteSpace=wrap;connectable=0;strokeColor=inherit;overflow=hidden;fillColor=none;top=0;left=0;bottom=0;right=0;pointerEvents=1;fontSize=16;" vertex="1" parent="FCroNnizWU_92-UYADma-421">
          <mxGeometry x="490" width="250" height="190" as="geometry">
            <mxRectangle width="250" height="190" as="alternateBounds" />
          </mxGeometry>
        </mxCell>
        <mxCell id="FCroNnizWU_92-UYADma-425" style="shape=partialRectangle;html=1;whiteSpace=wrap;connectable=0;strokeColor=inherit;overflow=hidden;fillColor=none;top=0;left=0;bottom=0;right=0;pointerEvents=1;fontSize=16;" vertex="1" parent="FCroNnizWU_92-UYADma-421">
          <mxGeometry x="740" width="270" height="190" as="geometry">
            <mxRectangle width="270" height="190" as="alternateBounds" />
          </mxGeometry>
        </mxCell>
        <mxCell id="FCroNnizWU_92-UYADma-426" style="shape=partialRectangle;html=1;whiteSpace=wrap;connectable=0;strokeColor=inherit;overflow=hidden;fillColor=none;top=0;left=0;bottom=0;right=0;pointerEvents=1;fontSize=16;" vertex="1" parent="FCroNnizWU_92-UYADma-421">
          <mxGeometry x="1010" width="290" height="190" as="geometry">
            <mxRectangle width="290" height="190" as="alternateBounds" />
          </mxGeometry>
        </mxCell>
        <mxCell id="FCroNnizWU_92-UYADma-427" value="&lt;span style=&quot;color: rgba(0, 0, 0, 0); font-family: monospace; font-size: 0px; text-align: start; text-wrap-mode: nowrap;&quot;&gt;%3CmxGraphModel%3E%3Croot%3E%3CmxCell%20id%3D%220%22%2F%3E%3CmxCell%20id%3D%221%22%20parent%3D%220%22%2F%3E%3CmxCell%20id%3D%222%22%20value%3D%22CMC-%D1%88%D0%BB%D1%8E%D0%B7%22%20style%3D%22shape%3Dext%3Bdouble%3D1%3Brounded%3D1%3BwhiteSpace%3Dwrap%3Bhtml%3D1%3BfillColor%3D%23f8cecc%3BstrokeColor%3D%23b85450%3BfontStyle%3D1%3BfontSize%3D15%3B%22%20vertex%3D%221%22%20parent%3D%221%22%3E%3CmxGeometry%20x%3D%221360%22%20y%3D%22700%22%20width%3D%22155%22%20height%3D%2240%22%20as%3D%22geometry%22%2F%3E%3C%2FmxCell%3E%3C%2Froot%3E%3C%2FmxGraphModel%3E&lt;/span&gt;&lt;span style=&quot;color: rgba(0, 0, 0, 0); font-family: monospace; font-size: 0px; text-align: start; text-wrap-mode: nowrap;&quot;&gt;%3CmxGraphModel%3E%3Croot%3E%3CmxCell%20id%3D%220%22%2F%3E%3CmxCell%20id%3D%221%22%20parent%3D%220%22%2F%3E%3CmxCell%20id%3D%222%22%20value%3D%22CMC-%D1%88%D0%BB%D1%8E%D0%B7%22%20style%3D%22shape%3Dext%3Bdouble%3D1%3Brounded%3D1%3BwhiteSpace%3Dwrap%3Bhtml%3D1%3BfillColor%3D%23f8cecc%3BstrokeColor%3D%23b85450%3BfontStyle%3D1%3BfontSize%3D15%3B%22%20vertex%3D%221%22%20parent%3D%221%22%3E%3CmxGeometry%20x%3D%221360%22%20y%3D%22700%22%20width%3D%22155%22%20height%3D%2240%22%20as%3D%22geometry%22%2F%3E%3C%2FmxCell%3E%3C%2Froot%3E%3C%2FmxGraphModel%3E&lt;/span&gt;" style="shape=partialRectangle;html=1;whiteSpace=wrap;connectable=0;strokeColor=inherit;overflow=hidden;fillColor=none;top=0;left=0;bottom=0;right=0;pointerEvents=1;fontSize=16;" vertex="1" parent="FCroNnizWU_92-UYADma-421">
          <mxGeometry x="1300" width="260" height="190" as="geometry">
            <mxRectangle width="260" height="190" as="alternateBounds" />
          </mxGeometry>
        </mxCell>
        <mxCell id="FCroNnizWU_92-UYADma-428" style="shape=partialRectangle;html=1;whiteSpace=wrap;connectable=0;strokeColor=inherit;overflow=hidden;fillColor=none;top=0;left=0;bottom=0;right=0;pointerEvents=1;fontSize=16;" vertex="1" parent="FCroNnizWU_92-UYADma-421">
          <mxGeometry x="1560" width="170" height="190" as="geometry">
            <mxRectangle width="170" height="190" as="alternateBounds" />
          </mxGeometry>
        </mxCell>
        <mxCell id="FCroNnizWU_92-UYADma-429" value="&lt;div&gt;&lt;span style=&quot;background-color: transparent; color: light-dark(rgb(0, 0, 0), rgb(255, 255, 255)); font-size: 25px;&quot;&gt;&lt;br&gt;&lt;/span&gt;&lt;/div&gt;&lt;div&gt;&lt;span style=&quot;background-color: transparent; color: light-dark(rgb(0, 0, 0), rgb(255, 255, 255)); font-size: 25px;&quot;&gt;&lt;br&gt;&lt;/span&gt;&lt;/div&gt;&lt;div&gt;&lt;span style=&quot;background-color: transparent; color: light-dark(rgb(0, 0, 0), rgb(255, 255, 255)); font-size: 25px;&quot;&gt;&lt;br&gt;&lt;/span&gt;&lt;/div&gt;&lt;div&gt;&lt;span style=&quot;background-color: transparent; color: light-dark(rgb(0, 0, 0), rgb(255, 255, 255)); font-size: 25px;&quot;&gt;&lt;br&gt;&lt;/span&gt;&lt;/div&gt;&lt;div&gt;&lt;span style=&quot;background-color: transparent; color: light-dark(rgb(0, 0, 0), rgb(255, 255, 255)); font-size: 25px;&quot;&gt;&lt;br&gt;&lt;/span&gt;&lt;/div&gt;&lt;div&gt;&lt;span style=&quot;background-color: transparent; color: light-dark(rgb(0, 0, 0), rgb(255, 255, 255)); font-size: 25px;&quot;&gt;&lt;br&gt;&lt;/span&gt;&lt;/div&gt;&lt;div&gt;&lt;span style=&quot;background-color: transparent; color: light-dark(rgb(0, 0, 0), rgb(255, 255, 255)); font-size: 25px;&quot;&gt;&lt;br&gt;&lt;/span&gt;&lt;/div&gt;&lt;div&gt;&lt;span style=&quot;background-color: transparent; color: light-dark(rgb(0, 0, 0), rgb(255, 255, 255)); font-size: 25px;&quot;&gt;&lt;br&gt;&lt;/span&gt;&lt;/div&gt;&lt;div&gt;&lt;span style=&quot;background-color: transparent; color: light-dark(rgb(0, 0, 0), rgb(255, 255, 255)); font-size: 25px;&quot;&gt;&lt;br&gt;&lt;/span&gt;&lt;/div&gt;&lt;div&gt;&lt;span style=&quot;background-color: transparent; color: light-dark(rgb(0, 0, 0), rgb(255, 255, 255)); font-size: 25px;&quot;&gt;&lt;br&gt;&lt;/span&gt;&lt;/div&gt;&lt;div&gt;&lt;span style=&quot;background-color: transparent; color: light-dark(rgb(0, 0, 0), rgb(255, 255, 255)); font-size: 25px;&quot;&gt;&lt;br&gt;&lt;/span&gt;&lt;/div&gt;&lt;div&gt;&lt;span style=&quot;background-color: transparent; color: light-dark(rgb(0, 0, 0), rgb(255, 255, 255)); font-size: 25px;&quot;&gt;&lt;br&gt;&lt;/span&gt;&lt;/div&gt;&lt;div&gt;&lt;span style=&quot;background-color: transparent; color: light-dark(rgb(0, 0, 0), rgb(255, 255, 255)); font-size: 25px;&quot;&gt;&amp;nbsp; &amp;nbsp;AБС&lt;/span&gt;&lt;/div&gt;" style="shape=ext;double=1;rounded=0;whiteSpace=wrap;html=1;fillColor=#e1d5e7;strokeColor=#9673a6;fontStyle=1;fontSize=15;shadow=0;glass=0;align=left;" vertex="1" parent="1">
          <mxGeometry x="590" y="2140" width="1220" height="430" as="geometry" />
        </mxCell>
        <mxCell id="FCroNnizWU_92-UYADma-430" value="&lt;font style=&quot;font-size: 25px;&quot;&gt;&amp;nbsp;&lt;/font&gt;&lt;div&gt;&lt;font style=&quot;font-size: 25px;&quot;&gt;&lt;br&gt;&lt;/font&gt;&lt;/div&gt;&lt;div&gt;&lt;font style=&quot;font-size: 25px;&quot;&gt;&lt;br&gt;&lt;/font&gt;&lt;/div&gt;&lt;div&gt;&lt;font style=&quot;font-size: 25px;&quot;&gt;&lt;br&gt;&lt;/font&gt;&lt;/div&gt;&lt;div&gt;&lt;font style=&quot;font-size: 25px;&quot;&gt;&lt;br&gt;&lt;/font&gt;&lt;/div&gt;&lt;div&gt;&lt;font style=&quot;font-size: 25px;&quot;&gt;&lt;br&gt;&lt;/font&gt;&lt;/div&gt;&lt;div&gt;&lt;font style=&quot;font-size: 25px;&quot;&gt;&lt;br&gt;&lt;/font&gt;&lt;/div&gt;&lt;div&gt;&lt;span style=&quot;background-color: transparent; color: light-dark(rgb(0, 0, 0), rgb(255, 255, 255)); font-size: 25px;&quot;&gt;&amp;nbsp; &amp;nbsp;&lt;/span&gt;&lt;/div&gt;&lt;div&gt;&lt;span style=&quot;background-color: transparent; color: light-dark(rgb(0, 0, 0), rgb(255, 255, 255)); font-size: 25px;&quot;&gt;&amp;nbsp; &amp;nbsp;CMC-шлюз&lt;/span&gt;&lt;/div&gt;" style="shape=ext;double=1;rounded=0;whiteSpace=wrap;html=1;fillColor=#f8cecc;strokeColor=#b85450;fontStyle=1;fontSize=15;align=left;" vertex="1" parent="1">
          <mxGeometry x="1250" y="2190" width="210" height="340" as="geometry" />
        </mxCell>
        <mxCell id="FCroNnizWU_92-UYADma-431" value="Call-center system" style="shape=ext;double=1;rounded=1;whiteSpace=wrap;html=1;fillColor=#ffe6cc;strokeColor=#d79b00;fontStyle=1;fontSize=15;" vertex="1" parent="1">
          <mxGeometry x="1540" y="1700" width="160" height="40" as="geometry" />
        </mxCell>
        <mxCell id="FCroNnizWU_92-UYADma-432" value="AБС" style="shape=ext;double=1;rounded=1;whiteSpace=wrap;html=1;fillColor=#e1d5e7;strokeColor=#9673a6;fontStyle=1;fontSize=15;" vertex="1" parent="1">
          <mxGeometry x="1542.5" y="1760" width="155" height="40" as="geometry" />
        </mxCell>
        <mxCell id="FCroNnizWU_92-UYADma-433" value="Excel" style="shape=ext;double=1;rounded=0;whiteSpace=wrap;html=1;fillColor=#dae8fc;strokeColor=#6c8ebf;fontStyle=1;fontSize=15;" vertex="1" parent="1">
          <mxGeometry x="480" y="1990" width="90" height="360" as="geometry" />
        </mxCell>
        <mxCell id="FCroNnizWU_92-UYADma-434" value="Email" style="shape=ext;double=1;rounded=0;whiteSpace=wrap;html=1;fillColor=#d5e8d4;strokeColor=#82b366;fontStyle=1;fontSize=15;" vertex="1" parent="1">
          <mxGeometry x="385" y="1990" width="80" height="360" as="geometry" />
        </mxCell>
        <mxCell id="FCroNnizWU_92-UYADma-435" value="AБС" style="shape=ext;double=1;rounded=1;whiteSpace=wrap;html=1;fillColor=#e1d5e7;strokeColor=#9673a6;fontStyle=1;fontSize=15;" vertex="1" parent="1">
          <mxGeometry x="390" y="1900" width="190" height="60" as="geometry" />
        </mxCell>
      </root>
    </mxGraphModel>
  </diagram>
</mxfile>
